M48
; DRILL file {KiCad 5.1.5-5.1.5} date Mi 01 Jan 2020 13:05:54 CET
; FORMAT={3:3/ absolute / metric / suppress leading zeros}
; #@! TF.CreationDate,2020-01-01T13:05:54+01:00
; #@! TF.GenerationSoftware,Kicad,Pcbnew,5.1.5-5.1.5
FMAT,2
METRIC,TZ
T1C0.400
T2C0.600
T3C0.800
T4C1.000
T5C3.500
%
G90
G05
T1
X145288Y-93472
X150956Y-99234
X154178Y-82550
X164338Y-77470
X168402Y-66802
X198882Y-70358
T2
X132080Y-102640
X132080Y-104140
X201676Y-67080
X201676Y-68580
X165608Y-51332
X165608Y-52832
X166116Y-139954
X167616Y-139954
X173990Y-119888
X175490Y-119888
X161544Y-136398
X161544Y-137898
X214884Y-55396
X214884Y-56896
X170688Y-52324
X172188Y-52324
X157988Y-70636
X157988Y-72136
X124738Y-86360
X126238Y-86360
T3
X156210Y-125222
X156210Y-135382
X144018Y-110236
X144018Y-117856
X202184Y-72898
X212344Y-72898
X131358Y-85344
X133858Y-85344
X151638Y-110236
X151638Y-117856
X124754Y-102616
X127254Y-102616
X151638Y-53086
X151638Y-63246
X171704Y-62484
X179324Y-62484
X197612Y-55626
X197612Y-58126
X142748Y-82042
X142748Y-84042
X195326Y-75184
X197826Y-75184
X196850Y-130556
X207010Y-130556
X151892Y-128778
X151892Y-136398
X196342Y-50800
X206502Y-50800
X157480Y-80518
X167640Y-80518
X196850Y-126746
X207010Y-126746
X158536Y-109728
X161036Y-109728
X147828Y-110236
X147828Y-117856
X139954Y-110236
X139954Y-117856
X191262Y-124714
X191262Y-134874
X157988Y-115062
X168148Y-115062
X171704Y-138176
X181864Y-138176
X179578Y-118364
X189738Y-118364
X216154Y-62230
X216154Y-72390
X166116Y-125984
X166116Y-128524
X166116Y-131064
X166116Y-133604
X173736Y-125984
X173736Y-128524
X173736Y-131064
X173736Y-133604
X191008Y-51308
X191008Y-61468
X175260Y-48514
X185420Y-48514
X182626Y-82550
X192786Y-82550
X124460Y-74930
X134620Y-74930
X143256Y-126492
X143256Y-136652
X137160Y-96266
X147320Y-96266
X139192Y-101378
X139192Y-103378
X173736Y-70612
X173736Y-80772
X125476Y-113030
X135636Y-113030
X147574Y-125222
X147574Y-132842
X157226Y-57404
X157226Y-59944
X157226Y-62484
X157226Y-65024
X164846Y-57404
X164846Y-59944
X164846Y-62484
X164846Y-65024
X185674Y-124714
X185674Y-134874
X124714Y-90932
X124714Y-98552
X127254Y-90932
X127254Y-98552
X129794Y-90932
X129794Y-98552
X132334Y-90932
X132334Y-98552
X161544Y-127802
X161544Y-130302
X178562Y-70612
X188722Y-70612
X125222Y-122682
X135382Y-122682
X180086Y-125008
X180086Y-127508
X144018Y-106680
X151638Y-106680
X130810Y-53340
X130810Y-63500
X178562Y-75692
X188722Y-75692
X201676Y-55372
X201676Y-57912
X201676Y-60452
X201676Y-62992
X209296Y-55372
X209296Y-57912
X209296Y-60452
X209296Y-62992
X137160Y-89916
X147320Y-89916
X169926Y-58166
X180086Y-58166
X124460Y-79756
X134620Y-79756
X202986Y-136652
X205486Y-136652
X146304Y-141478
X156464Y-141478
X167894Y-73152
X167894Y-75652
X171704Y-142240
X181864Y-142240
X207772Y-96012
X217932Y-96012
X142748Y-68580
X152908Y-68580
X175260Y-53340
X185420Y-53340
X180086Y-131612
X180086Y-134112
X157988Y-119888
X168148Y-119888
X207772Y-90678
X217932Y-90678
X145288Y-53086
X145288Y-63246
X142494Y-73406
X152654Y-73406
X125476Y-108458
X135636Y-108458
X171704Y-66548
X179324Y-66548
T4
X124794Y-69088
X129794Y-69088
X128270Y-117602
X133270Y-117602
X212598Y-132080
X215138Y-132080
X200406Y-80264
X200406Y-82804
X200406Y-85344
X133096Y-127000
X133096Y-132000
X124714Y-58420
X124714Y-60960
X184738Y-91186
X189738Y-91186
X138176Y-127080
X138176Y-132080
X133604Y-141478
X136144Y-141478
X138684Y-141478
X207772Y-78740
X207772Y-81280
X207772Y-83820
X172212Y-93726
X172212Y-96266
X172212Y-98806
X124714Y-128524
X124714Y-131064
X157988Y-86106
X162988Y-86106
X214884Y-78486
X214884Y-81026
X199136Y-109808
X199136Y-114808
X195834Y-64770
X195834Y-67310
X195834Y-69850
X162814Y-94234
X162814Y-99234
X212598Y-125476
X215138Y-125476
X188468Y-141732
X191008Y-141732
X180166Y-100330
X185166Y-100330
X177038Y-106934
X177038Y-109474
X177038Y-112014
X209550Y-102870
X209550Y-105410
X209550Y-107950
X209550Y-110490
X209550Y-113030
X209550Y-115570
X209550Y-118110
X209550Y-120650
X214630Y-104140
X214630Y-106680
X214630Y-109220
X214630Y-111760
X214630Y-114300
X214630Y-116840
X214630Y-119380
X206756Y-67818
X211756Y-67818
X168910Y-85852
X171450Y-85852
X173990Y-85852
X192024Y-96774
X192024Y-99314
X192024Y-101854
X197946Y-121412
X202946Y-121412
X198454Y-102362
X203454Y-102362
T5
X125000Y-50000
X125222Y-140208
X215000Y-50000
X215000Y-140000
T0
M30
