G04 #@! TF.GenerationSoftware,KiCad,Pcbnew,5.1.5-5.1.5*
G04 #@! TF.CreationDate,2020-01-01T13:04:27+01:00*
G04 #@! TF.ProjectId,E-Guitar-Amp,452d4775-6974-4617-922d-416d702e6b69,rev?*
G04 #@! TF.SameCoordinates,Original*
G04 #@! TF.FileFunction,Copper,L1,Top*
G04 #@! TF.FilePolarity,Positive*
%FSLAX46Y46*%
G04 Gerber Fmt 4.6, Leading zero omitted, Abs format (unit mm)*
G04 Created by KiCad (PCBNEW 5.1.5-5.1.5) date 2020-01-01 13:04:27*
%MOMM*%
%LPD*%
G04 APERTURE LIST*
%ADD10C,1.600000*%
%ADD11R,2.400000X1.600000*%
%ADD12O,2.400000X1.600000*%
%ADD13R,1.800000X1.800000*%
%ADD14O,1.800000X1.800000*%
%ADD15R,1.600000X2.400000*%
%ADD16O,1.600000X2.400000*%
%ADD17O,1.600000X1.600000*%
%ADD18R,1.700000X1.700000*%
%ADD19O,1.700000X1.700000*%
%ADD20R,1.600000X1.600000*%
%ADD21C,2.000000*%
%ADD22R,1.200000X1.200000*%
%ADD23C,1.200000*%
%ADD24R,2.000000X2.000000*%
%ADD25C,4.000000*%
%ADD26C,0.800000*%
%ADD27C,0.500000*%
%ADD28C,2.000000*%
%ADD29C,1.000000*%
%ADD30C,0.250000*%
G04 APERTURE END LIST*
D10*
X161544000Y-130302000D03*
X161544000Y-127802000D03*
X195326000Y-75184000D03*
X197826000Y-75184000D03*
X133858000Y-85344000D03*
X131358000Y-85344000D03*
X127254000Y-102616000D03*
X124754000Y-102616000D03*
D11*
X173736000Y-133604000D03*
D12*
X166116000Y-125984000D03*
X173736000Y-131064000D03*
X166116000Y-128524000D03*
X173736000Y-128524000D03*
X166116000Y-131064000D03*
X173736000Y-125984000D03*
X166116000Y-133604000D03*
D13*
X209550000Y-102870000D03*
D14*
X214630000Y-104140000D03*
X209550000Y-105410000D03*
X214630000Y-106680000D03*
X209550000Y-107950000D03*
X214630000Y-109220000D03*
X209550000Y-110490000D03*
X214630000Y-111760000D03*
X209550000Y-113030000D03*
X214630000Y-114300000D03*
X209550000Y-115570000D03*
X214630000Y-116840000D03*
X209550000Y-118110000D03*
X214630000Y-119380000D03*
X209550000Y-120650000D03*
D11*
X201676000Y-55372000D03*
D12*
X209296000Y-62992000D03*
X201676000Y-57912000D03*
X209296000Y-60452000D03*
X201676000Y-60452000D03*
X209296000Y-57912000D03*
X201676000Y-62992000D03*
X209296000Y-55372000D03*
D11*
X157226000Y-57404000D03*
D12*
X164846000Y-65024000D03*
X157226000Y-59944000D03*
X164846000Y-62484000D03*
X157226000Y-62484000D03*
X164846000Y-59944000D03*
X157226000Y-65024000D03*
X164846000Y-57404000D03*
D15*
X124714000Y-98552000D03*
D16*
X132334000Y-90932000D03*
X127254000Y-98552000D03*
X129794000Y-90932000D03*
X129794000Y-98552000D03*
X127254000Y-90932000D03*
X132334000Y-98552000D03*
X124714000Y-90932000D03*
D10*
X207010000Y-126746000D03*
D17*
X196850000Y-126746000D03*
D10*
X196850000Y-130556000D03*
D17*
X207010000Y-130556000D03*
D10*
X175260000Y-48514000D03*
D17*
X185420000Y-48514000D03*
D10*
X217932000Y-90678000D03*
D17*
X207772000Y-90678000D03*
D10*
X207772000Y-96012000D03*
D17*
X217932000Y-96012000D03*
D10*
X185420000Y-53340000D03*
D17*
X175260000Y-53340000D03*
D10*
X191008000Y-51308000D03*
D17*
X191008000Y-61468000D03*
D10*
X206502000Y-50800000D03*
D17*
X196342000Y-50800000D03*
D10*
X180086000Y-58166000D03*
D17*
X169926000Y-58166000D03*
D10*
X178562000Y-75692000D03*
D17*
X188722000Y-75692000D03*
D10*
X216154000Y-72390000D03*
D17*
X216154000Y-62230000D03*
D10*
X188722000Y-70612000D03*
D17*
X178562000Y-70612000D03*
D10*
X212344000Y-72898000D03*
D17*
X202184000Y-72898000D03*
D10*
X173736000Y-70612000D03*
D17*
X173736000Y-80772000D03*
D10*
X143256000Y-136652000D03*
D17*
X143256000Y-126492000D03*
D10*
X192786000Y-82550000D03*
D17*
X182626000Y-82550000D03*
D10*
X146304000Y-141478000D03*
D17*
X156464000Y-141478000D03*
D10*
X157480000Y-80518000D03*
D17*
X167640000Y-80518000D03*
D10*
X156210000Y-135382000D03*
D17*
X156210000Y-125222000D03*
D10*
X145288000Y-63246000D03*
D17*
X145288000Y-53086000D03*
D10*
X151638000Y-53086000D03*
D17*
X151638000Y-63246000D03*
D10*
X181864000Y-142240000D03*
D17*
X171704000Y-142240000D03*
D10*
X152654000Y-73406000D03*
D17*
X142494000Y-73406000D03*
D10*
X152908000Y-68580000D03*
D17*
X142748000Y-68580000D03*
D10*
X171704000Y-138176000D03*
D17*
X181864000Y-138176000D03*
D10*
X147320000Y-89916000D03*
D17*
X137160000Y-89916000D03*
D10*
X134620000Y-79756000D03*
D17*
X124460000Y-79756000D03*
D10*
X147320000Y-96266000D03*
D17*
X137160000Y-96266000D03*
D10*
X135636000Y-108458000D03*
D17*
X125476000Y-108458000D03*
D10*
X191262000Y-124714000D03*
D17*
X191262000Y-134874000D03*
D10*
X179578000Y-118364000D03*
D17*
X189738000Y-118364000D03*
D10*
X185674000Y-134874000D03*
D17*
X185674000Y-124714000D03*
D10*
X134620000Y-74930000D03*
D17*
X124460000Y-74930000D03*
D10*
X125476000Y-113030000D03*
D17*
X135636000Y-113030000D03*
D10*
X168148000Y-119888000D03*
D17*
X157988000Y-119888000D03*
D10*
X157988000Y-115062000D03*
D17*
X168148000Y-115062000D03*
D10*
X130810000Y-63500000D03*
D17*
X130810000Y-53340000D03*
D10*
X135382000Y-122682000D03*
D17*
X125222000Y-122682000D03*
D18*
X212598000Y-125476000D03*
D19*
X215138000Y-125476000D03*
D18*
X212598000Y-132080000D03*
D19*
X215138000Y-132080000D03*
D18*
X192024000Y-96774000D03*
D19*
X192024000Y-99314000D03*
X192024000Y-101854000D03*
D18*
X200406000Y-80264000D03*
D19*
X200406000Y-82804000D03*
X200406000Y-85344000D03*
D18*
X207772000Y-78740000D03*
D19*
X207772000Y-81280000D03*
X207772000Y-83820000D03*
D18*
X138684000Y-141478000D03*
D19*
X136144000Y-141478000D03*
X133604000Y-141478000D03*
D18*
X214884000Y-81026000D03*
D19*
X214884000Y-78486000D03*
D18*
X195834000Y-64770000D03*
D19*
X195834000Y-67310000D03*
X195834000Y-69850000D03*
D18*
X168910000Y-85852000D03*
D19*
X171450000Y-85852000D03*
X173990000Y-85852000D03*
D18*
X172212000Y-93726000D03*
D19*
X172212000Y-96266000D03*
X172212000Y-98806000D03*
D18*
X191008000Y-141732000D03*
D19*
X188468000Y-141732000D03*
D18*
X177038000Y-106934000D03*
D19*
X177038000Y-109474000D03*
X177038000Y-112014000D03*
D18*
X124714000Y-58420000D03*
D19*
X124714000Y-60960000D03*
D18*
X124714000Y-128524000D03*
D19*
X124714000Y-131064000D03*
D20*
X171704000Y-62484000D03*
D17*
X179324000Y-62484000D03*
D20*
X179324000Y-66548000D03*
D17*
X171704000Y-66548000D03*
D20*
X151892000Y-128778000D03*
D17*
X151892000Y-136398000D03*
D20*
X147574000Y-132842000D03*
D17*
X147574000Y-125222000D03*
D20*
X151638000Y-110236000D03*
D17*
X151638000Y-117856000D03*
D20*
X147828000Y-110236000D03*
D17*
X147828000Y-117856000D03*
D20*
X144018000Y-106680000D03*
D17*
X151638000Y-106680000D03*
D20*
X139954000Y-117856000D03*
D17*
X139954000Y-110236000D03*
D20*
X144018000Y-117856000D03*
D17*
X144018000Y-110236000D03*
D20*
X205486000Y-136652000D03*
D10*
X202986000Y-136652000D03*
D21*
X202946000Y-121412000D03*
X197946000Y-121412000D03*
X203454000Y-102362000D03*
X198454000Y-102362000D03*
D10*
X197612000Y-55626000D03*
X197612000Y-58126000D03*
D22*
X170688000Y-52324000D03*
D23*
X172188000Y-52324000D03*
D21*
X206756000Y-67818000D03*
X211756000Y-67818000D03*
X138176000Y-132080000D03*
X138176000Y-127080000D03*
X185166000Y-100330000D03*
X180166000Y-100330000D03*
X189738000Y-91186000D03*
X184738000Y-91186000D03*
X133096000Y-127000000D03*
X133096000Y-132000000D03*
D10*
X167894000Y-75652000D03*
X167894000Y-73152000D03*
D22*
X161544000Y-136398000D03*
D23*
X161544000Y-137898000D03*
D21*
X157988000Y-86106000D03*
X162988000Y-86106000D03*
D24*
X199136000Y-114808000D03*
D21*
X199136000Y-109808000D03*
D10*
X180086000Y-134112000D03*
X180086000Y-131612000D03*
D20*
X142748000Y-82042000D03*
D10*
X142748000Y-84042000D03*
D20*
X139192000Y-103378000D03*
D10*
X139192000Y-101378000D03*
X180086000Y-127508000D03*
X180086000Y-125008000D03*
D22*
X201676000Y-68580000D03*
D23*
X201676000Y-67080000D03*
D22*
X214884000Y-56896000D03*
D23*
X214884000Y-55396000D03*
D22*
X157988000Y-72136000D03*
D23*
X157988000Y-70636000D03*
D22*
X165608000Y-52832000D03*
D23*
X165608000Y-51332000D03*
D21*
X129794000Y-69088000D03*
X124794000Y-69088000D03*
X128270000Y-117602000D03*
X133270000Y-117602000D03*
D22*
X173990000Y-119888000D03*
D23*
X175490000Y-119888000D03*
D22*
X166116000Y-139954000D03*
D23*
X167616000Y-139954000D03*
D10*
X161036000Y-109728000D03*
X158536000Y-109728000D03*
D22*
X132080000Y-104140000D03*
D23*
X132080000Y-102640000D03*
D22*
X126238000Y-86360000D03*
D23*
X124738000Y-86360000D03*
D24*
X162814000Y-94234000D03*
D21*
X162814000Y-99234000D03*
D25*
X125000000Y-50000000D03*
X125222000Y-140208000D03*
X215000000Y-140000000D03*
X215000000Y-50000000D03*
D26*
X150956000Y-99234000D03*
X145288000Y-93472000D03*
X168402000Y-66802000D03*
X164338000Y-77470000D03*
X154178000Y-82550000D03*
X198882000Y-70358000D03*
D27*
X126238000Y-87708000D02*
X126238000Y-86360000D01*
X124714000Y-90932000D02*
X124714000Y-89232000D01*
X124714000Y-89232000D02*
X126238000Y-87708000D01*
D28*
X163322000Y-93726000D02*
X162814000Y-94234000D01*
X172212000Y-93726000D02*
X163322000Y-93726000D01*
X205427989Y-118099989D02*
X209550000Y-118099989D01*
X199136000Y-114808000D02*
X202136000Y-114808000D01*
X202136000Y-114808000D02*
X205427989Y-118099989D01*
D27*
X132080000Y-98806000D02*
X132334000Y-98552000D01*
X132080000Y-102640000D02*
X132080000Y-98806000D01*
X175490000Y-120736528D02*
X175490000Y-119888000D01*
X175490000Y-122930000D02*
X175490000Y-120736528D01*
X173736000Y-124684000D02*
X175490000Y-122930000D01*
X173736000Y-125984000D02*
X173736000Y-124684000D01*
D29*
X213360000Y-113030000D02*
X214630000Y-111760000D01*
X209550000Y-113030000D02*
X213360000Y-113030000D01*
D27*
X201676000Y-67080000D02*
X201676000Y-62992000D01*
X157988000Y-65786000D02*
X157226000Y-65024000D01*
X157988000Y-70636000D02*
X157988000Y-65786000D01*
D29*
X157027998Y-70636000D02*
X154154001Y-73509997D01*
X154154001Y-73509997D02*
X154154001Y-96035999D01*
X157988000Y-70636000D02*
X157027998Y-70636000D01*
D28*
X171784000Y-99234000D02*
X172212000Y-98806000D01*
X162814000Y-99234000D02*
X171784000Y-99234000D01*
X160613999Y-81194001D02*
X164592000Y-77216000D01*
X160613999Y-97033999D02*
X160613999Y-81194001D01*
X162814000Y-99234000D02*
X160613999Y-97033999D01*
D29*
X164338000Y-70866000D02*
X164592000Y-77216000D01*
X164592000Y-77216000D02*
X164338000Y-77470000D01*
D28*
X164338000Y-70866000D02*
X168402000Y-66802000D01*
X164338000Y-77470000D02*
X164338000Y-70866000D01*
X150956000Y-99234000D02*
X154154001Y-96035999D01*
X157226000Y-67824000D02*
X157226000Y-65024000D01*
X156187999Y-72920001D02*
X156187999Y-68862001D01*
X154178000Y-74930000D02*
X156187999Y-72920001D01*
X154178000Y-96012000D02*
X154178000Y-74930000D01*
X156187999Y-68862001D02*
X157226000Y-67824000D01*
X154154001Y-96035999D02*
X154178000Y-96012000D01*
X151638000Y-93472000D02*
X154178000Y-96012000D01*
X145288000Y-93472000D02*
X151638000Y-93472000D01*
X202986000Y-132882000D02*
X196850000Y-126746000D01*
X202986000Y-136652000D02*
X202986000Y-132882000D01*
X208277208Y-113030000D02*
X209550000Y-113030000D01*
X203772213Y-113030000D02*
X208277208Y-113030000D01*
X200550213Y-109808000D02*
X203772213Y-113030000D01*
X199136000Y-109808000D02*
X200550213Y-109808000D01*
D27*
X150838001Y-117056001D02*
X151638000Y-117856000D01*
X141254000Y-117856000D02*
X142504001Y-116605999D01*
X150387999Y-116605999D02*
X150838001Y-117056001D01*
X142504001Y-116605999D02*
X150387999Y-116605999D01*
X139954000Y-117856000D02*
X141254000Y-117856000D01*
D29*
X164759472Y-51332000D02*
X165608000Y-51332000D01*
X162945990Y-53034008D02*
X164647998Y-51332000D01*
X164647998Y-51332000D02*
X164759472Y-51332000D01*
X162945990Y-63523990D02*
X162945990Y-53034008D01*
X164446000Y-65024000D02*
X162945990Y-63523990D01*
X164846000Y-65024000D02*
X164446000Y-65024000D01*
D27*
X163830000Y-106934000D02*
X177038000Y-106934000D01*
X161036000Y-109728000D02*
X163830000Y-106934000D01*
X152769370Y-53086000D02*
X151638000Y-53086000D01*
X154208000Y-53086000D02*
X152769370Y-53086000D01*
X157226000Y-56104000D02*
X154208000Y-53086000D01*
X157226000Y-57404000D02*
X157226000Y-56104000D01*
X159038001Y-57516001D02*
X158926000Y-57404000D01*
X159038001Y-78959999D02*
X159038001Y-57516001D01*
X158926000Y-57404000D02*
X157226000Y-57404000D01*
X157480000Y-80518000D02*
X159038001Y-78959999D01*
X157988000Y-81026000D02*
X157480000Y-80518000D01*
X157988000Y-86106000D02*
X157988000Y-81026000D01*
X157988000Y-106680000D02*
X157988000Y-86106000D01*
X161036000Y-109728000D02*
X157988000Y-106680000D01*
X157988000Y-110276000D02*
X158536000Y-109728000D01*
X157988000Y-115062000D02*
X157988000Y-110276000D01*
X125476000Y-114808000D02*
X125476000Y-113030000D01*
X128270000Y-117602000D02*
X125476000Y-114808000D01*
X129794000Y-96852000D02*
X128446000Y-95504000D01*
X129794000Y-98552000D02*
X129794000Y-96852000D01*
X128446000Y-95504000D02*
X123698000Y-95504000D01*
X123698000Y-95504000D02*
X122682000Y-96520000D01*
X122682000Y-110236000D02*
X125476000Y-113030000D01*
X122682000Y-96520000D02*
X122682000Y-110236000D01*
X133270000Y-120570000D02*
X135382000Y-122682000D01*
X133270000Y-117602000D02*
X133270000Y-120570000D01*
X134620000Y-73914000D02*
X134620000Y-74930000D01*
X129794000Y-69088000D02*
X134620000Y-73914000D01*
X134620000Y-74930000D02*
X126746000Y-74930000D01*
X126746000Y-74930000D02*
X122682000Y-78994000D01*
X122682000Y-92964000D02*
X124460000Y-94742000D01*
X122682000Y-78994000D02*
X122682000Y-92964000D01*
X132334000Y-92632000D02*
X132334000Y-90932000D01*
X130224000Y-94742000D02*
X132334000Y-92632000D01*
X124460000Y-94742000D02*
X130224000Y-94742000D01*
X124794000Y-69088000D02*
X124794000Y-65579000D01*
X126873000Y-63500000D02*
X130810000Y-63500000D01*
X124794000Y-65579000D02*
X126873000Y-63500000D01*
X179538000Y-131064000D02*
X180086000Y-131612000D01*
X173736000Y-131064000D02*
X179538000Y-131064000D01*
X180086000Y-131612000D02*
X180086000Y-127508000D01*
X182880000Y-127508000D02*
X185674000Y-124714000D01*
X180086000Y-127508000D02*
X182880000Y-127508000D01*
X180086000Y-118872000D02*
X179578000Y-118364000D01*
X180086000Y-125008000D02*
X180086000Y-118872000D01*
X127254000Y-102616000D02*
X127254000Y-98552000D01*
X133096000Y-108458000D02*
X135636000Y-108458000D01*
X127254000Y-102616000D02*
X133096000Y-108458000D01*
X139192000Y-104902000D02*
X139192000Y-103378000D01*
X135636000Y-108458000D02*
X139192000Y-104902000D01*
X137160000Y-99346000D02*
X137160000Y-96266000D01*
X139192000Y-101378000D02*
X137160000Y-99346000D01*
X133682000Y-85344000D02*
X133858000Y-85344000D01*
X129794000Y-89232000D02*
X133682000Y-85344000D01*
X129794000Y-90932000D02*
X129794000Y-89232000D01*
X133858000Y-80518000D02*
X134620000Y-79756000D01*
X133858000Y-85344000D02*
X133858000Y-80518000D01*
X136906000Y-82042000D02*
X142748000Y-82042000D01*
X134620000Y-79756000D02*
X136906000Y-82042000D01*
X142748000Y-84042000D02*
X138081000Y-84042000D01*
X137160000Y-84963000D02*
X137160000Y-89916000D01*
X138081000Y-84042000D02*
X137160000Y-84963000D01*
X179578000Y-133604000D02*
X180086000Y-134112000D01*
X173736000Y-133604000D02*
X179578000Y-133604000D01*
X180086000Y-136398000D02*
X181864000Y-138176000D01*
X180086000Y-134112000D02*
X180086000Y-136398000D01*
X185166000Y-134874000D02*
X185674000Y-134874000D01*
X181864000Y-138176000D02*
X185166000Y-134874000D01*
X124714000Y-102576000D02*
X124754000Y-102616000D01*
X124714000Y-98552000D02*
X124714000Y-102576000D01*
X125476000Y-103338000D02*
X124754000Y-102616000D01*
X125476000Y-108458000D02*
X125476000Y-103338000D01*
X142748000Y-68580000D02*
X143998001Y-69830001D01*
X143998001Y-92711376D02*
X142240000Y-94469377D01*
X143998001Y-69830001D02*
X143998001Y-92711376D01*
X136236001Y-109708001D02*
X126726001Y-109708001D01*
X142240000Y-103704002D02*
X136236001Y-109708001D01*
X126275999Y-109257999D02*
X125476000Y-108458000D01*
X126726001Y-109708001D02*
X126275999Y-109257999D01*
X142240000Y-94469377D02*
X142240000Y-103704002D01*
X125770000Y-79756000D02*
X131358000Y-85344000D01*
X124460000Y-79756000D02*
X125770000Y-79756000D01*
X131142000Y-85344000D02*
X131358000Y-85344000D01*
X127254000Y-89232000D02*
X131142000Y-85344000D01*
X127254000Y-90932000D02*
X127254000Y-89232000D01*
X125710001Y-78505999D02*
X137394001Y-78505999D01*
X141694001Y-74205999D02*
X142494000Y-73406000D01*
X137394001Y-78505999D02*
X141694001Y-74205999D01*
X124460000Y-79756000D02*
X125710001Y-78505999D01*
X155194000Y-136398000D02*
X156210000Y-135382000D01*
X151892000Y-136398000D02*
X155194000Y-136398000D01*
X160528000Y-135382000D02*
X161544000Y-136398000D01*
X156210000Y-135382000D02*
X160528000Y-135382000D01*
X161544000Y-135298000D02*
X161544000Y-130302000D01*
X161544000Y-136398000D02*
X161544000Y-135298000D01*
X165354000Y-130302000D02*
X166116000Y-131064000D01*
X161544000Y-130302000D02*
X165354000Y-130302000D01*
X155410001Y-124422001D02*
X156210000Y-125222000D01*
X148373999Y-124422001D02*
X155410001Y-124422001D01*
X147574000Y-125222000D02*
X148373999Y-124422001D01*
X162266000Y-128524000D02*
X161544000Y-127802000D01*
X166116000Y-128524000D02*
X162266000Y-128524000D01*
X158964000Y-125222000D02*
X161544000Y-127802000D01*
X156210000Y-125222000D02*
X158964000Y-125222000D01*
X167816000Y-128524000D02*
X170561000Y-131269000D01*
X166116000Y-128524000D02*
X167816000Y-128524000D01*
X177618002Y-142240000D02*
X180732630Y-142240000D01*
X180732630Y-142240000D02*
X181864000Y-142240000D01*
X170561000Y-135182998D02*
X177618002Y-142240000D01*
X170561000Y-131269000D02*
X170561000Y-135182998D01*
X168656000Y-86106000D02*
X168910000Y-85852000D01*
X162988000Y-86106000D02*
X168656000Y-86106000D01*
X160044000Y-137898000D02*
X161544000Y-137898000D01*
X156464000Y-141478000D02*
X160044000Y-137898000D01*
X167640000Y-75906000D02*
X167894000Y-75652000D01*
X167640000Y-80518000D02*
X167640000Y-75906000D01*
X173736000Y-83566000D02*
X173736000Y-80772000D01*
X171450000Y-85852000D02*
X173736000Y-83566000D01*
X167894000Y-73152000D02*
X172466000Y-73152000D01*
X173736000Y-74422000D02*
X173736000Y-80772000D01*
X172466000Y-73152000D02*
X173736000Y-74422000D01*
X138096000Y-127000000D02*
X138176000Y-127080000D01*
X133096000Y-127000000D02*
X138096000Y-127000000D01*
X142668000Y-127080000D02*
X143256000Y-126492000D01*
X138176000Y-127080000D02*
X142668000Y-127080000D01*
X192024000Y-91186000D02*
X200406000Y-82804000D01*
X189738000Y-91186000D02*
X192024000Y-91186000D01*
X200406000Y-82804000D02*
X200406000Y-80264000D01*
X206756000Y-82804000D02*
X207772000Y-83820000D01*
X200406000Y-82804000D02*
X206756000Y-82804000D01*
X184738000Y-95758000D02*
X180166000Y-100330000D01*
X184738000Y-91186000D02*
X184738000Y-95758000D01*
X184738000Y-84662000D02*
X182626000Y-82550000D01*
X184738000Y-91186000D02*
X184738000Y-84662000D01*
X191174001Y-100163999D02*
X192024000Y-99314000D01*
X190008001Y-101329999D02*
X191174001Y-100163999D01*
X186165999Y-101329999D02*
X190008001Y-101329999D01*
X185166000Y-100330000D02*
X186165999Y-101329999D01*
X146304000Y-139700000D02*
X146304000Y-141478000D01*
X143256000Y-136652000D02*
X146304000Y-139700000D01*
X140034000Y-141478000D02*
X146304000Y-141478000D01*
X138684000Y-141478000D02*
X140034000Y-141478000D01*
X143256000Y-136652000D02*
X139446000Y-136652000D01*
X138176000Y-135382000D02*
X138176000Y-132080000D01*
X139446000Y-136652000D02*
X138176000Y-135382000D01*
X192786000Y-77724000D02*
X195326000Y-75184000D01*
X192786000Y-82550000D02*
X192786000Y-77724000D01*
X197358000Y-72020630D02*
X197358000Y-67631919D01*
X197036081Y-67310000D02*
X195834000Y-67310000D01*
X195326000Y-74052630D02*
X197358000Y-72020630D01*
X197358000Y-67631919D02*
X197036081Y-67310000D01*
X195326000Y-75184000D02*
X195326000Y-74052630D01*
X201382000Y-78740000D02*
X207772000Y-78740000D01*
X197826000Y-75184000D02*
X201382000Y-78740000D01*
X209296000Y-65278000D02*
X209296000Y-62992000D01*
X206756000Y-67818000D02*
X209296000Y-65278000D01*
X210996000Y-62992000D02*
X209296000Y-62992000D01*
X216154000Y-68150000D02*
X210996000Y-62992000D01*
X216154000Y-72390000D02*
X216154000Y-68150000D01*
X212344000Y-68406000D02*
X211756000Y-67818000D01*
X212344000Y-72898000D02*
X212344000Y-68406000D01*
X170688000Y-57404000D02*
X169926000Y-58166000D01*
X170688000Y-52324000D02*
X170688000Y-57404000D01*
X168148000Y-59944000D02*
X164846000Y-59944000D01*
X169926000Y-58166000D02*
X168148000Y-59944000D01*
X173204000Y-53340000D02*
X172188000Y-52324000D01*
X175260000Y-53340000D02*
X173204000Y-53340000D01*
X201422000Y-55626000D02*
X201676000Y-55372000D01*
X197612000Y-55626000D02*
X201422000Y-55626000D01*
X206502000Y-52246000D02*
X206502000Y-51931370D01*
X203376000Y-55372000D02*
X206502000Y-52246000D01*
X206502000Y-51931370D02*
X206502000Y-50800000D01*
X201676000Y-55372000D02*
X203376000Y-55372000D01*
X218104011Y-57062009D02*
X214382002Y-53340000D01*
X207772000Y-96012000D02*
X218104011Y-85679989D01*
X218104011Y-85679989D02*
X218104011Y-57062009D01*
X209042000Y-53340000D02*
X206502000Y-50800000D01*
X214382002Y-53340000D02*
X209042000Y-53340000D01*
X201462000Y-58126000D02*
X201676000Y-57912000D01*
X197612000Y-58126000D02*
X201462000Y-58126000D01*
X196342000Y-56856000D02*
X196342000Y-50800000D01*
X197612000Y-58126000D02*
X196342000Y-56856000D01*
X195834000Y-51308000D02*
X196342000Y-50800000D01*
X191008000Y-51308000D02*
X195834000Y-51308000D01*
D30*
X207772000Y-106680000D02*
X214630000Y-106680000D01*
X203454000Y-102362000D02*
X207772000Y-106680000D01*
D27*
X217132001Y-96811999D02*
X217932000Y-96012000D01*
X216681999Y-97262001D02*
X217132001Y-96811999D01*
X201307998Y-102362000D02*
X206407997Y-97262001D01*
X206407997Y-97262001D02*
X216681999Y-97262001D01*
X198454000Y-102362000D02*
X201307998Y-102362000D01*
X196946001Y-103869999D02*
X197454001Y-103361999D01*
X197454001Y-103361999D02*
X198454000Y-102362000D01*
X196946001Y-120412001D02*
X196946001Y-103869999D01*
X197946000Y-121412000D02*
X196946001Y-120412001D01*
X217132001Y-95212001D02*
X217932000Y-96012000D01*
X217132001Y-91477999D02*
X217132001Y-95212001D01*
X217932000Y-90678000D02*
X217132001Y-91477999D01*
D30*
X212045001Y-119424999D02*
X213730001Y-117739999D01*
X204933001Y-119424999D02*
X212045001Y-119424999D01*
X213730001Y-117739999D02*
X214630000Y-116840000D01*
X202946000Y-121412000D02*
X204933001Y-119424999D01*
D27*
X205486000Y-132080000D02*
X207010000Y-130556000D01*
X205486000Y-136652000D02*
X205486000Y-132080000D01*
X207010000Y-130556000D02*
X207010000Y-126746000D01*
D30*
X207010000Y-126746000D02*
X205878630Y-126746000D01*
D27*
X171704000Y-142240000D02*
X171704000Y-138176000D01*
X144018000Y-117856000D02*
X147828000Y-117856000D01*
X144506001Y-132184003D02*
X144506001Y-124818003D01*
X155361997Y-143039999D02*
X144506001Y-132184003D01*
X170904001Y-143039999D02*
X155361997Y-143039999D01*
X171704000Y-142240000D02*
X170904001Y-143039999D01*
X144018000Y-124330002D02*
X144018000Y-117856000D01*
X144506001Y-124818003D02*
X144018000Y-124330002D01*
X144018000Y-110236000D02*
X144018000Y-106680000D01*
X139954000Y-110236000D02*
X144018000Y-110236000D01*
X151638000Y-106680000D02*
X151638000Y-110236000D01*
X151638000Y-110236000D02*
X147828000Y-110236000D01*
X150592000Y-128778000D02*
X151892000Y-128778000D01*
X150338000Y-128778000D02*
X150592000Y-128778000D01*
X147574000Y-131542000D02*
X150338000Y-128778000D01*
X147574000Y-132842000D02*
X147574000Y-131542000D01*
X188722000Y-74560630D02*
X188722000Y-70612000D01*
X188722000Y-75692000D02*
X188722000Y-74560630D01*
X179324000Y-67848000D02*
X179324000Y-66548000D01*
X182088000Y-70612000D02*
X179324000Y-67848000D01*
X188722000Y-70612000D02*
X182088000Y-70612000D01*
X179324000Y-66548000D02*
X179324000Y-62484000D01*
X179324000Y-58928000D02*
X180086000Y-58166000D01*
X179324000Y-62484000D02*
X179324000Y-58928000D01*
X164846000Y-62484000D02*
X171704000Y-62484000D01*
X171704000Y-62484000D02*
X171704000Y-66548000D01*
X171704000Y-68580000D02*
X173736000Y-70612000D01*
X171704000Y-66548000D02*
X171704000Y-68580000D01*
X173736000Y-70612000D02*
X178562000Y-70612000D01*
X125222000Y-128016000D02*
X124714000Y-128524000D01*
X125222000Y-122682000D02*
X125222000Y-128016000D01*
X130810000Y-57658000D02*
X130810000Y-53340000D01*
X124714000Y-58420000D02*
X130048000Y-58420000D01*
X130048000Y-58420000D02*
X130810000Y-57658000D01*
X168148000Y-124636000D02*
X168148000Y-121019370D01*
X168148000Y-121019370D02*
X168148000Y-119888000D01*
X172036000Y-128524000D02*
X168148000Y-124636000D01*
X173736000Y-128524000D02*
X172036000Y-128524000D01*
X167348001Y-115861999D02*
X168148000Y-115062000D01*
X167348001Y-119088001D02*
X167348001Y-115861999D01*
X168148000Y-119888000D02*
X167348001Y-119088001D01*
X173736000Y-109474000D02*
X177038000Y-109474000D01*
X168148000Y-115062000D02*
X173736000Y-109474000D01*
X190462001Y-123914001D02*
X191262000Y-124714000D01*
X188938001Y-122390001D02*
X190462001Y-123914001D01*
X188938001Y-119163999D02*
X188938001Y-122390001D01*
X189738000Y-118364000D02*
X188938001Y-119163999D01*
X188341000Y-127635000D02*
X191262000Y-124714000D01*
X188341000Y-137715000D02*
X188341000Y-127635000D01*
X191008000Y-141732000D02*
X191008000Y-140382000D01*
X191008000Y-140382000D02*
X188341000Y-137715000D01*
X185420000Y-48514000D02*
X185420000Y-53340000D01*
X195834000Y-57912000D02*
X195834000Y-64770000D01*
X185420000Y-53340000D02*
X191262000Y-53340000D01*
X191262000Y-53340000D02*
X195834000Y-57912000D01*
X138430000Y-143764000D02*
X136144000Y-141478000D01*
X192024000Y-143764000D02*
X138430000Y-143764000D01*
X192024000Y-143764000D02*
X195072000Y-140716000D01*
X195072000Y-140716000D02*
X195072000Y-121847998D01*
X195834000Y-69850000D02*
X191262000Y-74422000D01*
X182880000Y-100469998D02*
X182880000Y-109601000D01*
X185438010Y-97911988D02*
X182880000Y-100469998D01*
X185438010Y-93339988D02*
X185438010Y-97911988D01*
X191262000Y-87515998D02*
X185438010Y-93339988D01*
X191262000Y-74422000D02*
X191262000Y-87515998D01*
X195072000Y-121847998D02*
X182880000Y-109601000D01*
X214884000Y-81026000D02*
X213534000Y-81026000D01*
X213534000Y-81026000D02*
X212090000Y-79582000D01*
X212090000Y-79582000D02*
X212090000Y-76962000D01*
X208026000Y-72898000D02*
X202184000Y-72898000D01*
X212090000Y-76962000D02*
X208026000Y-72898000D01*
X201276000Y-60452000D02*
X198882000Y-62846000D01*
X201676000Y-60452000D02*
X201276000Y-60452000D01*
X198882000Y-62846000D02*
X198882000Y-70358000D01*
X192024000Y-93726000D02*
X192024000Y-96774000D01*
X200406000Y-85344000D02*
X192024000Y-93726000D01*
D29*
X214148001Y-133630001D02*
X212598000Y-132080000D01*
X217888011Y-131623991D02*
X215882001Y-133630001D01*
X217888011Y-105030009D02*
X217888011Y-131623991D01*
X215398001Y-102539999D02*
X217888011Y-105030009D01*
X213861999Y-102539999D02*
X215398001Y-102539999D01*
X215882001Y-133630001D02*
X214148001Y-133630001D01*
X213531998Y-102870000D02*
X213861999Y-102539999D01*
X209550000Y-102870000D02*
X213531998Y-102870000D01*
X215987999Y-131230001D02*
X215138000Y-132080000D01*
X216688001Y-130529999D02*
X215987999Y-131230001D01*
X216688001Y-106198001D02*
X216688001Y-130529999D01*
X214630000Y-104140000D02*
X216688001Y-106198001D01*
X209550000Y-122428000D02*
X212598000Y-125476000D01*
X209550000Y-120650000D02*
X209550000Y-122428000D01*
X215138000Y-119888000D02*
X214630000Y-119380000D01*
X215138000Y-125476000D02*
X215138000Y-119888000D01*
D27*
X152908000Y-67448630D02*
X152908000Y-68580000D01*
X152908000Y-66402000D02*
X152908000Y-67448630D01*
X156826000Y-62484000D02*
X152908000Y-66402000D01*
X157226000Y-62484000D02*
X156826000Y-62484000D01*
X152908000Y-73152000D02*
X152654000Y-73406000D01*
X152908000Y-68580000D02*
X152908000Y-73152000D01*
X154940000Y-59944000D02*
X151638000Y-63246000D01*
X157226000Y-59944000D02*
X154940000Y-59944000D01*
X150506630Y-63246000D02*
X145288000Y-63246000D01*
X151638000Y-63246000D02*
X150506630Y-63246000D01*
X209296000Y-57912000D02*
X209296000Y-60452000D01*
X217404001Y-82177369D02*
X217404001Y-60432001D01*
X207772000Y-90678000D02*
X208903370Y-90678000D01*
X208903370Y-90678000D02*
X217404001Y-82177369D01*
X217404001Y-60432001D02*
X216408000Y-59436000D01*
X209296000Y-59212000D02*
X209296000Y-57912000D01*
X209520000Y-59436000D02*
X209296000Y-59212000D01*
X216408000Y-59436000D02*
X209520000Y-59436000D01*
M02*
